<?xml version="1.0" standalone="no"?>
<!DOCTYPE svg PUBLIC "-//W3C//DTD SVG 20010904//EN"
 "http://www.w3.org/TR/2001/REC-SVG-20010904/DTD/svg10.dtd">
<svg version="1.0" xmlns="http://www.w3.org/2000/svg"
 width="512.000000pt" height="512.000000pt" viewBox="0 0 512.000000 512.000000"
 preserveAspectRatio="xMidYMid meet">
<metadata>
Created by potrace 1.14, written by Peter Selinger 2001-2017
</metadata>
<g transform="translate(0.000000,512.000000) scale(0.100000,-0.100000)"
fill="#000000" stroke="none">
<path d="M2560 4851 c0 -71 -37 -149 -90 -192 -21 -17 -310 -142 -715 -309
-374 -155 -685 -287 -692 -293 -11 -11 -623 -1481 -623 -1497 0 -16 612 -1486
623 -1497 7 -6 67 -34 135 -62 l122 -50 0 846 c0 672 -3 844 -12 840 -81 -30
-87 -30 -128 -18 -73 22 -103 109 -61 177 36 58 251 124 474 144 179 17 366
-5 557 -65 111 -36 150 -72 150 -140 0 -40 -5 -52 -34 -81 -42 -42 -82 -44
-186 -9 -61 21 -211 55 -241 55 -5 0 -8 -409 -7 -981 l3 -982 362 -150 363
-150 362 150 363 150 3 981 c1 573 -2 982 -7 982 -30 0 -180 -34 -241 -55
-104 -35 -144 -33 -186 9 -29 29 -34 41 -34 81 0 40 5 52 33 79 56 56 274 114
492 131 223 18 608 -70 656 -149 42 -68 12 -155 -61 -177 -36 -11 -49 -10 -87
4 -26 10 -48 16 -50 14 -2 -2 -2 -382 -1 -844 l3 -841 120 50 c66 27 125 54
132 61 6 7 138 318 293 692 165 400 293 694 309 715 43 53 121 90 191 90 l57
0 28 75 c23 65 25 79 15 109 -26 80 -109 100 -189 46 -49 -33 -78 -37 -120
-16 -32 17 -51 54 -51 98 0 28 28 60 234 267 197 199 235 242 241 273 9 50
-16 102 -61 123 -64 30 -83 19 -274 -170 -96 -95 -186 -180 -200 -189 -38 -25
-85 -20 -122 13 -47 42 -45 90 5 155 20 27 42 67 48 90 23 87 -14 187 -89 240
-35 25 -55 31 -111 34 -73 4 -98 -4 -174 -59 -51 -37 -95 -38 -135 -4 -36 30
-47 70 -32 110 6 16 120 137 254 270 156 153 249 254 261 279 25 57 23 145 -6
197 -52 92 -143 132 -245 110 -57 -13 -65 -19 -204 -156 -80 -78 -155 -148
-167 -154 -38 -20 -80 -13 -115 18 -42 38 -45 90 -7 141 47 63 46 119 -1 170
-23 25 -36 30 -75 30 l-48 0 -181 -179 c-103 -102 -192 -182 -206 -186 -14 -3
-38 -2 -52 4 -73 28 -90 106 -38 175 36 48 39 90 7 137 -25 38 -76 56 -121 45
-15 -4 -49 -27 -75 -51 -26 -24 -58 -48 -72 -53 -95 -37 -170 88 -101 169 21
26 27 43 27 82 0 42 -4 52 -33 78 -29 26 -40 29 -97 29 l-65 0 0 -59z m-559
-1054 c40 -27 59 -76 49 -123 -20 -90 -334 -370 -593 -530 -121 -75 -324 -174
-356 -174 -66 0 -128 73 -117 138 8 52 36 75 171 141 225 112 496 313 640 475
33 37 71 74 85 81 37 21 83 18 121 -8z m1226 13 c16 -6 58 -43 93 -82 152
-169 407 -358 643 -477 137 -69 177 -105 177 -158 0 -59 -64 -123 -123 -123
-36 0 -285 127 -412 211 -189 124 -461 363 -516 454 -39 63 -14 141 55 171 38
16 45 17 83 4z m-532 -1616 c201 -98 366 -436 353 -723 -5 -112 -25 -168 -83
-224 -83 -81 -195 -111 -405 -111 -210 0 -322 30 -405 111 -58 56 -78 112 -83
224 -14 316 179 672 403 746 61 20 151 11 220 -23z"/>
<path d="M2462 1730 c-159 -34 -280 -155 -256 -257 20 -84 64 -131 169 -180
56 -26 69 -28 185 -28 116 0 129 2 185 28 82 38 121 71 147 120 62 120 -12
244 -177 301 -60 20 -193 29 -253 16z"/>
</g>
</svg>
