<?xml version="1.0" encoding="utf-8"?>
<!-- Generator: Adobe Illustrator 26.1.0, SVG Export Plug-In . SVG Version: 6.00 Build 0)  -->
<svg version="1.1" id="Layer_1" xmlns="http://www.w3.org/2000/svg" xmlns:xlink="http://www.w3.org/1999/xlink" x="0px" y="0px"
	 viewBox="0 0 512 512" style="enable-background:new 0 0 512 512;" xml:space="preserve">
<path d="M506.5,170.8c0.9-5-1.6-10.2-6.1-12.3c-6.4-3-8.3-1.9-27.4,17c-9.6,9.5-18.6,18-20,18.9c-3.8,2.5-8.5,2-12.2-1.3
	c-4.7-4.2-4.5-9,0.5-15.5c2-2.7,4.2-6.7,4.8-9c2.3-8.7-1.4-18.7-8.9-24c-3.5-2.5-5.5-3.1-11.1-3.4c-7.3-0.4-9.8,0.4-17.4,5.9
	c-5.1,3.7-9.5,3.8-13.5,0.4c-3.6-3-4.7-7-3.2-11c0.6-1.6,12-13.7,25.4-27c15.6-15.3,24.9-25.4,26.1-27.9c2.5-5.7,2.3-14.5-0.6-19.7
	c-5.2-9.2-14.3-13.2-24.5-11c-5.7,1.3-6.5,1.9-20.4,15.6c-8,7.8-15.5,14.8-16.7,15.4c-3.8,2-8,1.3-11.5-1.8c-4.2-3.8-4.5-9-0.7-14.1
	c4.7-6.3,4.6-11.9-0.1-17c-2.3-2.5-3.6-3-7.5-3h-4.8l-18.1,17.9c-10.3,10.2-19.2,18.2-20.6,18.6c-1.4,0.3-3.8,0.2-5.2-0.4
	c-7.3-2.8-9-10.6-3.8-17.5c3.6-4.8,3.9-9,0.7-13.7c-2.5-3.8-7.6-5.6-12.1-4.5c-1.5,0.4-4.9,2.7-7.5,5.1c-2.6,2.4-5.8,4.8-7.2,5.3
	c-9.5,3.7-17-8.8-10.1-16.9c2.1-2.6,2.7-4.3,2.7-8.2c0-4.2-0.4-5.2-3.3-7.8c-2.9-2.6-4-2.9-9.7-2.9H256v5.9c0,7.1-3.7,14.9-9,19.2
	c-2.1,1.7-31,14.2-71.5,30.9c-37.4,15.5-68.5,28.7-69.2,29.3C105.2,107.4,44,254.4,44,256s61.2,148.6,62.3,149.7
	c0.7,0.6,6.7,3.4,13.5,6.2l12.2,5l51.5,21.4l36.2,15l36.3,15l36.2-15l36.3-15l52-21.5l12-5c6.6-2.7,12.5-5.4,13.2-6.1
	c0.6-0.7,13.8-31.8,29.3-69.2c16.5-40,29.3-69.4,30.9-71.5c4.3-5.3,12.1-9,19.1-9h5.7l2.8-7.5c2.3-6.5,2.5-7.9,1.5-10.9
	c-2.6-8-10.9-10-18.9-4.6c-4.9,3.3-7.8,3.7-12,1.6c-3.2-1.7-5.1-5.4-5.1-9.8c0-2.8,2.8-6,23.4-26.7
	C502.1,178.2,505.9,173.9,506.5,170.8z M346,283.7l-32-72.4L254.5,167l-79.1,20.8l-32.3,82.4l39.2,65.4l66.8-2.3l24.3-50.3
	l-18.2-32.1l-26.7-7.5l-15.6,14.5l4.1,23.8l23,3.8l-5.6,20l-35.8-13.3l-14-40l38-41l56.6,13.1l36.7,58.5L272.6,367l-111.8,13
	L91.7,267l54.4-121.8l113.1-40.1l104.7,58.6L437,257L346,283.7z"/>
<path d="M314.2,328.8"/>
<path d="M269.5,292.6"/>
<path d="M269.5,292.6"/>
</svg>
